<?xml version="1.0" encoding="utf-8"?>
<!-- Generator: Adobe Illustrator 21.1.0, SVG Export Plug-In . SVG Version: 6.00 Build 0)  -->
<svg version="1.1" id="Layer_1" xmlns="http://www.w3.org/2000/svg" xmlns:xlink="http://www.w3.org/1999/xlink" x="0px" y="0px"
	 viewBox="0 0 1366 768" style="enable-background:new 0 0 1366 768;" xml:space="preserve">
<style type="text/css">
	.st0{fill:#FFFFFF;}
</style>
<g id="bpydcg.tif">
	<g>
		<path class="st0" d="M250.3,550.6c0-65.6,0-130.9,0-196.2c171,0,342,0,513,0c0,65.4,0,130.8,0,196.2
			C592.3,550.6,421.3,550.6,250.3,550.6z M420.6,450.2c8.2,0,15.8,0,23.5,0c0-31.3,0-62.3,0-93.4c-12.8,0-25.2,0-37.9,0
			c-4.7,18.1-9.3,36.1-13.9,54.1c-0.3,0-0.6,0-0.8,0c-4.7-18-9.3-36-14-53.9c-12.9,0-25.4,0-38.1,0c0,31.2,0,62.2,0,93.3
			c7.9,0,15.6,0,23.8,0c0-22.2,0-44.2,0-66.1c0.2,0,0.4,0,0.7-0.1c5.7,22.1,11.3,44.2,17,66.3c7.4,0,14.6,0,21.8,0
			c5.7-22.3,11.4-44.5,17.1-66.6c0.3,0,0.5,0.1,0.8,0.1C420.6,405.9,420.6,427.9,420.6,450.2z M647.2,450.5c0-31.6,0-62.6,0-93.6
			c-9.3,0-18.2,0-27.7,0c0,16.5,0,32.8,0,49.1c-10.3-13.8-20.1-27.6-29.1-41.9c-3.7-5.9-7.7-8.5-14.7-7.6
			c-5.9,0.7-11.9,0.1-17.9,0.1c0,31.5,0,62.5,0,93.6c9.1,0,18.1,0,27.4,0c0-16.5,0-32.8,0-50.1c1.2,1.6,1.7,2.3,2.2,3.1
			c10.1,14.8,20.2,29.7,30.4,44.5c0.8,1.2,2.4,2.7,3.7,2.7C630.1,450.6,638.5,450.5,647.2,450.5z M547.6,454.6c0,16.4,0,32.8,0,49.2
			c-9.8-13.1-19.3-26.1-27.6-39.7c-4.6-7.5-9.8-11.1-18.7-9.8c-5,0.7-10.3,0.1-15.4,0.1c0,31.6,0,62.5,0,93.6c9.2,0,18.1,0,27.5,0
			c0-16.5,0-32.8,0-50.2c1.2,1.7,1.7,2.5,2.2,3.2c10.1,14.8,20.2,29.7,30.4,44.5c0.7,1.1,1.9,2.6,3,2.6c8.8,0.2,17.6,0.1,26.4,0.1
			c0-31.5,0-62.5,0-93.6C566.4,454.6,557.5,454.6,547.6,454.6z M410,507c2.5-0.9,4-1.4,5.6-2c10.5-4.2,16.8-14.8,15.9-26.6
			c-1-12.4-7.7-20.8-19.9-22.5c-10.6-1.5-21.5-1.3-32.3-1.5c-10.7-0.2-21.3-0.1-32.3-0.1c0,31.3,0,62.4,0,93.6c9.7,0,19.3,0,29.2,0
			c0-12.5,0-24.8,0-37.1c6.4-1.1,9.7,0.5,13.2,6.8c5.1,9.2,10,18.5,15.1,27.8c0.6,1.1,1.9,2.6,2.9,2.6c10.4,0.2,20.7,0.1,31.5,0.1
			c-0.3-0.9-0.4-1.4-0.6-1.8c-4.5-8.8-8.8-17.7-13.6-26.3C421.5,514.5,417.7,509.3,410,507z M549.2,403.3c0-1.6,0-3.1,0-4.7
			c-0.6-21.5-12.5-36.9-32.4-41.8c-8.8-2.1-17.8-2.5-26.7-1c-17.4,2.8-29.6,12-35.2,29.1c-3,9.3-3.1,18.9-2,28.6
			c2,17.8,13.7,32.3,31,36.4c7.6,1.8,15.7,2.3,23.6,1.9c15.9-0.8,28.9-7.4,36.6-22C548.3,421.5,549.5,412.5,549.2,403.3z
			 M712.1,508.7c15,0,29.7,0,44.5,0c0-6.6,0-12.8,0-19.5c-15,0-29.7,0-44.4,0c0-5.1,0-9.6,0-14.5c16.1,0,31.9,0,47.7,0
			c0-7,0-13.5,0-19.9c-25.9,0-51.4,0-77,0c0,31.3,0,62.2,0,93.3c26.3,0,52.4,0,78.6,0c0-7.2,0-14.1,0-21.5c-16.6,0-32.9,0-49.4,0
			C712.1,520.5,712.1,514.9,712.1,508.7z M650,509.7c-1.8,4-3,7.7-5,11c-3.5,6-9.4,7.6-15.8,7c-6.4-0.6-11.6-3.7-13.6-10.1
			c-3.3-10.4-3.7-21-0.1-31.4c2.3-6.6,7.3-10.3,14.2-11.2c6.3-0.8,11.6,1.4,15.4,6.5c1.4,1.9,2.3,4.3,3.6,6.5
			c8.5-1.9,16.9-3.8,25.6-5.7c-5-15-13.7-25.7-29.7-28c-7.9-1.1-16.1-1.5-24-0.5c-17.4,2.2-29.5,11.9-34.4,29.1
			c-3.6,12.6-3.6,25.6,0.5,38.1c3.9,11.8,11.3,21.1,23.4,25.6c11.7,4.3,23.8,4.5,35.8,2.1c15.4-3.1,27.4-16.5,28.8-31.4
			C666.5,514.7,658.1,512.2,650,509.7z M288.1,513.7c1.9,0,3.4,0,4.9,0c6.5-0.2,13,0,19.5-0.8c11.6-1.3,20.5-6.8,24.2-18.5
			c2.1-6.7,2.1-13.5,0.5-20.4c-2.3-9.7-8.4-15.7-17.9-18.1c-3.9-1-7.9-1.5-11.9-1.5c-14.8-0.2-29.7-0.1-44.5-0.1c-1.3,0-2.5,0-4,0
			c0,31.4,0,62.5,0,93.5c9.8,0,19.3,0,29.2,0C288.1,536.4,288.1,525.3,288.1,513.7z M251.9,418.5c-0.6,16.1,8.4,28.7,23.4,32
			c6.6,1.4,13.7,1.8,20.5,1.4c14.6-0.7,26.1-9.8,29.1-22.4c1.2-4.9,1.8-10,1.9-15.1c0.2-18.2,0.1-36.5,0.1-54.7c0-0.9,0-1.7,0-2.8
			c-9.8,0-19.3,0-29.2,0c0,1.6,0,3,0,4.4c0,16.9,0,33.9,0,50.8c0,3.4-0.2,6.8-0.8,10.1c-1,5.4-4.5,8.3-9,7.9
			c-4.2-0.3-7.3-3.8-7.9-8.8c-0.3-2.1-0.6-4.3-0.8-6.5C269.8,416,261,417.2,251.9,418.5z M471.3,548.1c0-31.4,0-62.4,0-93.5
			c-9.8,0-19.2,0-28.9,0c0,31.2,0,62.3,0,93.5C452.1,548.1,461.5,548.1,471.3,548.1z"/>
		<path d="M420.6,450.2c0-22.3,0-44.4,0-66.4c-0.3,0-0.5-0.1-0.8-0.1c-5.7,22.2-11.4,44.4-17.1,66.6c-7.3,0-14.4,0-21.8,0
			c-5.7-22.1-11.3-44.2-17-66.3c-0.2,0-0.4,0-0.7,0.1c0,22,0,43.9,0,66.1c-8.1,0-15.8,0-23.8,0c0-31.1,0-62.1,0-93.3
			c12.6,0,25.2,0,38.1,0c4.6,18,9.3,36,14,53.9c0.3,0,0.6,0,0.8,0c4.6-18,9.3-36,13.9-54.1c12.7,0,25.2,0,37.9,0
			c0,31.1,0,62.2,0,93.4C436.5,450.2,428.8,450.2,420.6,450.2z"/>
		<path d="M647.2,450.5c-8.7,0-17.2,0.1-25.6-0.1c-1.3,0-2.9-1.5-3.7-2.7c-10.2-14.8-20.3-29.6-30.4-44.5c-0.5-0.7-1-1.4-2.2-3.1
			c0,17.3,0,33.6,0,50.1c-9.4,0-18.3,0-27.4,0c0-31.1,0-62.1,0-93.6c6,0,12,0.6,17.9-0.1c7-0.8,11,1.8,14.7,7.6
			c9,14.3,18.8,28,29.1,41.9c0-16.3,0-32.6,0-49.1c9.5,0,18.4,0,27.7,0C647.2,387.9,647.2,418.9,647.2,450.5z"/>
		<path d="M547.6,454.6c9.9,0,18.7,0,27.7,0c0,31.2,0,62.1,0,93.6c-8.8,0-17.6,0.1-26.4-0.1c-1,0-2.2-1.5-3-2.6
			c-10.2-14.8-20.3-29.7-30.4-44.5c-0.5-0.7-1-1.5-2.2-3.2c0,17.4,0,33.7,0,50.2c-9.4,0-18.3,0-27.5,0c0-31,0-62,0-93.6
			c5.1,0,10.4,0.6,15.4-0.1c8.9-1.3,14.1,2.3,18.7,9.8c8.3,13.6,17.8,26.6,27.6,39.7C547.6,487.4,547.6,471,547.6,454.6z"/>
		<path d="M410,507c7.6,2.3,11.5,7.5,14.6,13.1c4.8,8.6,9.1,17.5,13.6,26.3c0.2,0.4,0.3,0.9,0.6,1.8c-10.7,0-21.1,0.1-31.5-0.1
			c-1,0-2.3-1.5-2.9-2.6c-5.1-9.2-10-18.6-15.1-27.8c-3.5-6.3-6.9-7.9-13.2-6.8c0,12.2,0,24.6,0,37.1c-9.9,0-19.5,0-29.2,0
			c0-31.2,0-62.3,0-93.6c11,0,21.7-0.2,32.3,0.1c10.8,0.2,21.7,0.1,32.3,1.5c12.2,1.7,18.9,10.1,19.9,22.5
			c0.9,11.8-5.4,22.4-15.9,26.6C414.1,505.7,412.5,506.2,410,507z M376.4,492.7c6.6-0.5,12.8-0.8,18.9-1.6c3.9-0.5,6.6-4.1,6.7-8
			c0.1-4.3-1.9-7.7-6.1-8.3c-6.4-0.9-13-0.8-19.5-1.2C376.4,480.2,376.4,485.9,376.4,492.7z"/>
		<path d="M549.2,403.3c0.3,9.2-0.9,18.2-5.2,26.5c-7.7,14.7-20.7,21.3-36.6,22c-7.8,0.4-16-0.1-23.6-1.9c-17.3-4.1-29-18.6-31-36.4
			c-1.1-9.7-1-19.3,2-28.6c5.5-17.1,17.8-26.3,35.2-29.1c9-1.5,17.9-1.1,26.7,1c19.9,4.8,31.9,20.3,32.4,41.8
			C549.2,400.2,549.2,401.8,549.2,403.3z M481.4,403.4c0.4,3.9,0.6,7.5,1.2,11.1c1.8,9.5,8.5,15.3,17.7,15.6
			c9.5,0.3,16.6-4.6,18.3-14.5c1.2-7.5,1.4-15.5,0.4-23.1c-1.3-9.6-8.6-14.9-18-15c-9.2-0.1-15.8,5.1-18.1,14.5
			C481.9,395.8,481.8,399.7,481.4,403.4z"/>
		<path d="M712.1,508.7c0,6.3,0,11.8,0,17.8c16.5,0,32.9,0,49.4,0c0,7.4,0,14.4,0,21.5c-26.2,0-52.3,0-78.6,0c0-31.1,0-62,0-93.3
			c25.5,0,51.1,0,77,0c0,6.4,0,13,0,19.9c-15.8,0-31.6,0-47.7,0c0,4.9,0,9.4,0,14.5c14.7,0,29.5,0,44.4,0c0,6.7,0,12.9,0,19.5
			C741.8,508.7,727.1,508.7,712.1,508.7z"/>
		<path d="M650,509.7c8.1,2.5,16.5,5,24.8,7.5c-1.4,14.9-13.4,28.2-28.8,31.4c-12,2.4-24.1,2.2-35.8-2.1
			c-12.1-4.4-19.5-13.7-23.4-25.6c-4.1-12.5-4.1-25.4-0.5-38.1c4.9-17.2,16.9-26.9,34.4-29.1c7.9-1,16.1-0.6,24,0.5
			c16,2.3,24.7,13,29.7,28c-8.6,1.9-17.1,3.8-25.6,5.7c-1.2-2.3-2.1-4.6-3.6-6.5c-3.8-5.1-9.1-7.3-15.4-6.5
			c-6.9,0.8-11.9,4.6-14.2,11.2c-3.6,10.4-3.2,21,0.1,31.4c2,6.4,7.1,9.5,13.6,10.1c6.4,0.6,12.3-1,15.8-7
			C647,517.4,648.2,513.7,650,509.7z"/>
		<path d="M288.1,513.7c0,11.6,0,22.7,0,34.2c-9.9,0-19.4,0-29.2,0c0-31,0-62.1,0-93.5c1.4,0,2.7,0,4,0c14.8,0,29.7-0.1,44.5,0.1
			c4,0,8.1,0.6,11.9,1.5c9.5,2.4,15.6,8.4,17.9,18.1c1.6,6.8,1.6,13.7-0.5,20.4c-3.7,11.6-12.6,17.1-24.2,18.5
			c-6.4,0.7-13,0.5-19.5,0.8C291.5,513.8,290,513.7,288.1,513.7z M288.2,494.6c4.9-0.4,9.5-0.5,13.9-1.2c4.6-0.8,7.6-4.7,7.6-9.1
			c0.1-4.9-2.6-8.8-7.4-9.5c-4.5-0.7-9.2-0.7-14.1-1.1C288.2,480.8,288.2,487.2,288.2,494.6z"/>
		<path d="M251.9,418.5c9.1-1.2,17.9-2.5,27.2-3.7c0.3,2.2,0.6,4.4,0.8,6.5c0.6,5,3.8,8.5,7.9,8.8c4.5,0.3,8-2.6,9-7.9
			c0.6-3.3,0.8-6.7,0.8-10.1c0.1-16.9,0-33.9,0-50.8c0-1.4,0-2.8,0-4.4c9.9,0,19.3,0,29.2,0c0,1,0,1.9,0,2.8
			c0,18.2,0.1,36.5-0.1,54.7c-0.1,5-0.7,10.2-1.9,15.1c-3,12.6-14.5,21.7-29.1,22.4c-6.8,0.3-13.9,0-20.5-1.4
			C260.3,447.2,251.3,434.6,251.9,418.5z"/>
		<path d="M471.3,548.1c-9.7,0-19.2,0-28.9,0c0-31.2,0-62.2,0-93.5c9.7,0,19.2,0,28.9,0C471.3,485.7,471.3,516.7,471.3,548.1z"/>
		<path class="st0" d="M376.4,492.7c0-6.7,0-12.4,0-19.1c6.5,0.4,13.1,0.3,19.5,1.2c4.2,0.6,6.2,4,6.1,8.3c-0.1,3.8-2.7,7.4-6.7,8
			C389.2,491.8,383,492.1,376.4,492.7z"/>
		<path class="st0" d="M481.4,403.4c0.4-3.6,0.6-7.6,1.5-11.3c2.3-9.5,8.9-14.7,18.1-14.5c9.4,0.1,16.7,5.5,18,15
			c1,7.6,0.9,15.6-0.4,23.1c-1.6,9.9-8.7,14.8-18.3,14.5c-9.2-0.3-15.9-6.1-17.7-15.6C481.9,410.9,481.8,407.3,481.4,403.4z"/>
		<path class="st0" d="M288.2,494.6c0-7.3,0-13.8,0-20.9c4.9,0.3,9.5,0.3,14.1,1.1c4.8,0.8,7.5,4.7,7.4,9.5c-0.1,4.4-3,8.3-7.6,9.1
			C297.7,494.1,293.1,494.2,288.2,494.6z"/>
	</g>
</g>
</svg>
